999
"DXF R12 Output" (www.mydxf.blogspot.com)
 0 
SECTION
 2 
HEADER
 9 
$ACADVER
 1 
AC1009
 9 
$EXTMIN
 10 
 0 
 20 
 0 
 9 
$EXTMAX
 10 
 8.5 
 20 
 11 
 0 
ENDSEC
 0 
SECTION
 2 
ENTITIES
0
LINE
8
Layer 1
10
0.793749
20
281.419749
11
-0.793749
21
279.832251
0
LINE
8
Layer 1
10
0.000000
20
281.948915
11
0.000000
21
279.303085
0
LINE
8
Layer 1
10
2.116664
20
279.567668
11
1.058332
21
278.509336
0
LINE
8
Layer 1
10
1.587498
20
280.096834
11
0.529166
21
279.038502
0
LINE
8
Layer 1
10
1.058332
20
280.626000
11
0.000000
21
279.567668
0
LINE
8
Layer 1
10
1.681042
20
280.096771
11
0.093544
21
278.509273
0
LINE
8
Layer 1
10
0.887293
20
280.625937
11
0.887293
21
277.980107
0
LINE
8
Layer 1
10
3.003954
20
278.244690
11
1.945625
21
277.186358
0
LINE
8
Layer 1
10
2.474788
20
278.773856
11
1.416459
21
277.715524
0
LINE
8
Layer 1
10
1.945625
20
279.303022
11
0.887293
21
278.244690
0
LINE
8
Layer 1
10
2.568334
20
278.773803
11
0.980838
21
277.186305
0
LINE
8
Layer 1
10
1.774585
20
279.302969
11
1.774585
21
276.657139
0
LINE
8
Layer 1
10
3.891236
20
276.921722
11
2.832917
21
275.863390
0
LINE
8
Layer 1
10
3.362078
20
277.450888
11
2.303751
21
276.392556
0
LINE
8
Layer 1
10
2.832917
20
277.980054
11
1.774585
21
276.921722
0
LINE
8
Layer_1
10
258.391639
20
184.662556
11
258.187911
21
186.677620
0
LINE
8
Layer_1
10
258.187911
20
186.677620
11
257.605034
21
188.554043
0
LINE
8
Layer_1
10
257.605034
20
188.554043
11
256.682962
21
190.252401
0
LINE
8
Layer_1
10
256.682962
20
190.252401
11
255.461647
21
191.731949
0
LINE
8
Layer_1
10
255.461647
20
191.731949
11
253.981835
21
192.952206
0
LINE
8
Layer_1
10
253.981835
20
192.952206
11
252.283476
21
193.874013
0
LINE
8
Layer_1
10
252.283476
20
193.874013
11
250.406789
21
194.456360
0
LINE
8
Layer_1
10
250.406789
20
194.456360
11
248.391725
21
194.659560
0
LINE
8
Layer_1
10
248.391725
20
194.659560
11
246.376661
21
194.456360
0
LINE
8
Layer_1
10
246.376661
20
194.456360
11
244.499974
21
193.874013
0
LINE
8
Layer_1
10
244.499974
20
193.874013
11
242.801615
21
192.952206
0
LINE
8
Layer_1
10
242.801615
20
192.952206
11
241.321803
21
191.731949
0
LINE
8
Layer_1
10
241.321803
20
191.731949
11
240.100487
21
190.252401
0
LINE
8
Layer_1
10
240.100487
20
190.252401
11
239.178416
21
188.554043
0
LINE
8
Layer_1
10
239.178416
20
188.554043
11
238.595539
21
186.677620
0
LINE
8
Layer_1
10
238.595539
20
186.677620
11
238.391810
21
184.662556
0
LINE
8
Layer_1
10
238.391810
20
184.662556
11
238.595539
21
182.647757
0
LINE
8
Layer_1
10
238.595539
20
182.647757
11
239.178416
21
180.771069
0
LINE
8
Layer_1
10
239.178416
20
180.771069
11
240.100487
21
179.072976
0
LINE
8
Layer_1
10
240.100487
20
179.072976
11
241.321803
21
177.593428
0
LINE
8
Layer_1
10
241.321803
20
177.593428
11
242.801615
21
176.372642
0
LINE
8
Layer_1
10
242.801615
20
176.372642
11
244.499974
21
175.451099
0
LINE
8
Layer_1
10
244.499974
20
175.451099
11
246.376661
21
174.868487
0
LINE
8
Layer_1
10
246.376661
20
174.868487
11
248.391725
21
174.665552
0
LINE
8
Layer_1
10
248.391725
20
174.665552
11
250.406789
21
174.868487
0
LINE
8
Layer_1
10
250.406789
20
174.868487
11
252.283476
21
175.451099
0
LINE
8
Layer_1
10
252.283476
20
175.451099
11
253.981835
21
176.372642
0
LINE
8
Layer_1
10
253.981835
20
176.372642
11
255.461647
21
177.593428
0
LINE
8
Layer_1
10
255.461647
20
177.593428
11
256.682962
21
179.072976
0
LINE
8
Layer_1
10
256.682962
20
179.072976
11
257.605034
21
180.771069
0
LINE
8
Layer_1
10
257.605034
20
180.771069
11
258.187911
21
182.647757
0
LINE
8
Layer_1
10
258.187911
20
182.647757
11
258.391639
21
184.662556
0
LINE
8
Layer_1
10
235.141673
20
180.662590
11
235.045100
21
181.619587
0
LINE
8
Layer_1
10
235.045100
20
181.619587
11
234.768082
21
182.510967
0
LINE
8
Layer_1
10
234.768082
20
182.510967
11
234.329932
21
183.317681
0
LINE
8
Layer_1
10
234.329932
20
183.317681
11
233.749966
21
184.020413
0
LINE
8
Layer_1
10
233.749966
20
184.020413
11
233.046969
21
184.600115
0
LINE
8
Layer_1
10
233.046969
20
184.600115
11
232.240256
21
185.037999
0
LINE
8
Layer_1
10
232.240256
20
185.037999
11
231.348876
21
185.314489
0
LINE
8
Layer_1
10
231.348876
20
185.314489
11
230.391879
21
185.411061
0
LINE
8
Layer_1
10
230.391879
20
185.411061
11
229.434618
21
185.314489
0
LINE
8
Layer_1
10
229.434618
20
185.314489
11
228.543237
21
185.037999
0
LINE
8
Layer_1
10
228.543237
20
185.037999
11
227.736524
21
184.600115
0
LINE
8
Layer_1
10
227.736524
20
184.600115
11
227.033527
21
184.020413
0
LINE
8
Layer_1
10
227.033527
20
184.020413
11
226.453561
21
183.317681
0
LINE
8
Layer_1
10
226.453561
20
183.317681
11
226.015411
21
182.510967
0
LINE
8
Layer_1
10
226.015411
20
182.510967
11
225.738658
21
181.619587
0
LINE
8
Layer_1
10
225.738658
20
181.619587
11
225.641820
21
180.662590
0
LINE
8
Layer_1
10
225.641820
20
180.662590
11
225.738658
21
179.705594
0
LINE
8
Layer_1
10
225.738658
20
179.705594
11
226.015411
21
178.814213
0
LINE
8
Layer_1
10
226.015411
20
178.814213
11
226.453561
21
178.007764
0
LINE
8
Layer_1
10
226.453561
20
178.007764
11
227.033527
21
177.305032
0
LINE
8
Layer_1
10
227.033527
20
177.305032
11
227.736524
21
176.725066
0
LINE
8
Layer_1
10
227.736524
20
176.725066
11
228.543237
21
176.287446
0
LINE
8
Layer_1
10
228.543237
20
176.287446
11
229.434618
21
176.010692
0
LINE
8
Layer_1
10
229.434618
20
176.010692
11
230.391879
21
175.914119
0
LINE
8
Layer_1
10
230.391879
20
175.914119
11
231.348876
21
176.010692
0
LINE
8
Layer_1
10
231.348876
20
176.010692
11
232.240256
21
176.287446
0
LINE
8
Layer_1
10
232.240256
20
176.287446
11
233.046969
21
176.725066
0
LINE
8
Layer_1
10
233.046969
20
176.725066
11
233.749966
21
177.305032
0
LINE
8
Layer_1
10
233.749966
20
177.305032
11
234.329932
21
178.007764
0
LINE
8
Layer_1
10
234.329932
20
178.007764
11
234.768082
21
178.814213
0
LINE
8
Layer_1
10
234.768082
20
178.814213
11
235.045100
21
179.705594
0
LINE
8
Layer_1
10
235.045100
20
179.705594
11
235.141673
21
180.662590
0
LINE
8
Layer_1
10
19.406939
20
146.115459
11
20.380049
21
146.311779
0
LINE
8
Layer_1
10
20.380049
20
146.311779
11
21.174697
21
146.847560
0
LINE
8
Layer_1
10
21.174697
20
146.847560
11
21.710478
21
147.642367
0
LINE
8
Layer_1
10
21.710478
20
147.642367
11
21.906931
21
148.615239
0
LINE
8
Layer_1
10
21.906931
20
148.615239
11
22.097245
21
149.571971
0
LINE
8
Layer_1
10
22.097245
20
149.571971
11
22.639164
21
150.383183
0
LINE
8
Layer_1
10
22.639164
20
150.383183
11
23.450190
21
150.925049
0
LINE
8
Layer_1
10
23.450190
20
150.925049
11
24.406896
21
151.115284
0
LINE
8
Layer_1
10
256.405679
20
151.115284
11
257.362412
21
150.925049
0
LINE
8
Layer_1
10
257.362412
20
150.925049
11
258.173358
21
150.383183
0
LINE
8
Layer_1
10
258.173358
20
150.383183
11
258.715224
21
149.571971
0
LINE
8
Layer_1
10
258.715224
20
149.571971
11
258.905724
21
148.615239
0
LINE
8
Layer_1
10
258.905724
20
148.615239
11
259.102045
21
147.642367
0
LINE
8
Layer_1
10
259.102045
20
147.642367
11
259.637825
21
146.847560
0
LINE
8
Layer_1
10
259.637825
20
146.847560
11
260.432633
21
146.311779
0
LINE
8
Layer_1
10
260.432633
20
146.311779
11
261.405504
21
146.115459
0
LINE
8
Layer_1
10
24.406896
20
151.115284
11
256.405679
21
151.115284
0
LINE
8
Layer_1
10
258.391639
20
184.662556
11
258.187911
21
186.677620
0
LINE
8
Layer_1
10
258.187911
20
186.677620
11
257.605034
21
188.554043
0
LINE
8
Layer_1
10
257.605034
20
188.554043
11
256.682962
21
190.252401
0
LINE
8
Layer_1
10
256.682962
20
190.252401
11
255.461647
21
191.731949
0
LINE
8
Layer_1
10
255.461647
20
191.731949
11
253.981835
21
192.952206
0
LINE
8
Layer_1
10
253.981835
20
192.952206
11
252.283476
21
193.874013
0
LINE
8
Layer_1
10
252.283476
20
193.874013
11
250.406789
21
194.456360
0
LINE
8
Layer_1
10
250.406789
20
194.456360
11
248.391725
21
194.659560
0
LINE
8
Layer_1
10
248.391725
20
194.659560
11
246.376661
21
194.456360
0
LINE
8
Layer_1
10
246.376661
20
194.456360
11
244.499974
21
193.874013
0
LINE
8
Layer_1
10
244.499974
20
193.874013
11
242.801615
21
192.952206
0
LINE
8
Layer_1
10
242.801615
20
192.952206
11
241.321803
21
191.731949
0
LINE
8
Layer_1
10
241.321803
20
191.731949
11
240.100487
21
190.252401
0
LINE
8
Layer_1
10
240.100487
20
190.252401
11
239.178416
21
188.554043
0
LINE
8
Layer_1
10
239.178416
20
188.554043
11
238.595539
21
186.677620
0
LINE
8
Layer_1
10
238.595539
20
186.677620
11
238.391810
21
184.662556
0
LINE
8
Layer_1
10
238.391810
20
184.662556
11
238.595539
21
182.647757
0
LINE
8
Layer_1
10
238.595539
20
182.647757
11
239.178416
21
180.771069
0
LINE
8
Layer_1
10
239.178416
20
180.771069
11
240.100487
21
179.072976
0
LINE
8
Layer_1
10
240.100487
20
179.072976
11
241.321803
21
177.593428
0
LINE
8
Layer_1
10
241.321803
20
177.593428
11
242.801615
21
176.372642
0
LINE
8
Layer_1
10
242.801615
20
176.372642
11
244.499974
21
175.451099
0
LINE
8
Layer_1
10
244.499974
20
175.451099
11
246.376661
21
174.868487
0
LINE
8
Layer_1
10
246.376661
20
174.868487
11
248.391725
21
174.665552
0
LINE
8
Layer_1
10
248.391725
20
174.665552
11
250.406789
21
174.868487
0
LINE
8
Layer_1
10
250.406789
20
174.868487
11
252.283476
21
175.451099
0
LINE
8
Layer_1
10
252.283476
20
175.451099
11
253.981835
21
176.372642
0
LINE
8
Layer_1
10
253.981835
20
176.372642
11
255.461647
21
177.593428
0
LINE
8
Layer_1
10
255.461647
20
177.593428
11
256.682962
21
179.072976
0
LINE
8
Layer_1
10
256.682962
20
179.072976
11
257.605034
21
180.771069
0
LINE
8
Layer_1
10
257.605034
20
180.771069
11
258.187911
21
182.647757
0
LINE
8
Layer_1
10
258.187911
20
182.647757
11
258.391639
21
184.662556
0
LINE
8
Layer_1
10
261.405504
20
146.115459
11
278.905818
21
146.115459
0
LINE
8
Layer_1
10
278.905818
20
146.115459
11
278.905818
21
206.114946
0
LINE
8
Layer_1
10
278.905818
20
206.114946
11
1.907036
21
206.114946
0
LINE
8
Layer_1
10
1.907036
20
206.114946
11
1.907036
21
146.115459
0
LINE
8
Layer_1
10
1.907036
20
146.115459
11
19.406939
21
146.115459
0
LINE
8
Layer_1
10
235.141673
20
180.662590
11
235.045100
21
181.619587
0
LINE
8
Layer_1
10
235.045100
20
181.619587
11
234.768082
21
182.510967
0
LINE
8
Layer_1
10
234.768082
20
182.510967
11
234.329932
21
183.317681
0
LINE
8
Layer_1
10
234.329932
20
183.317681
11
233.749966
21
184.020413
0
LINE
8
Layer_1
10
233.749966
20
184.020413
11
233.046969
21
184.600115
0
LINE
8
Layer_1
10
233.046969
20
184.600115
11
232.240256
21
185.037999
0
LINE
8
Layer_1
10
232.240256
20
185.037999
11
231.348876
21
185.314489
0
LINE
8
Layer_1
10
231.348876
20
185.314489
11
230.391879
21
185.411061
0
LINE
8
Layer_1
10
230.391879
20
185.411061
11
229.434618
21
185.314489
0
LINE
8
Layer_1
10
229.434618
20
185.314489
11
228.543237
21
185.037999
0
LINE
8
Layer_1
10
228.543237
20
185.037999
11
227.736524
21
184.600115
0
LINE
8
Layer_1
10
227.736524
20
184.600115
11
227.033527
21
184.020413
0
LINE
8
Layer_1
10
227.033527
20
184.020413
11
226.453561
21
183.317681
0
LINE
8
Layer_1
10
226.453561
20
183.317681
11
226.015411
21
182.510967
0
LINE
8
Layer_1
10
226.015411
20
182.510967
11
225.738658
21
181.619587
0
LINE
8
Layer_1
10
225.738658
20
181.619587
11
225.641820
21
180.662590
0
LINE
8
Layer_1
10
225.641820
20
180.662590
11
225.738658
21
179.705594
0
LINE
8
Layer_1
10
225.738658
20
179.705594
11
226.015411
21
178.814213
0
LINE
8
Layer_1
10
226.015411
20
178.814213
11
226.453561
21
178.007764
0
LINE
8
Layer_1
10
226.453561
20
178.007764
11
227.033527
21
177.305032
0
LINE
8
Layer_1
10
227.033527
20
177.305032
11
227.736524
21
176.725066
0
LINE
8
Layer_1
10
227.736524
20
176.725066
11
228.543237
21
176.287446
0
LINE
8
Layer_1
10
228.543237
20
176.287446
11
229.434618
21
176.010692
0
LINE
8
Layer_1
10
229.434618
20
176.010692
11
230.391879
21
175.914119
0
LINE
8
Layer_1
10
230.391879
20
175.914119
11
231.348876
21
176.010692
0
LINE
8
Layer_1
10
231.348876
20
176.010692
11
232.240256
21
176.287446
0
LINE
8
Layer_1
10
232.240256
20
176.287446
11
233.046969
21
176.725066
0
LINE
8
Layer_1
10
233.046969
20
176.725066
11
233.749966
21
177.305032
0
LINE
8
Layer_1
10
233.749966
20
177.305032
11
234.329932
21
178.007764
0
LINE
8
Layer_1
10
234.329932
20
178.007764
11
234.768082
21
178.814213
0
LINE
8
Layer_1
10
234.768082
20
178.814213
11
235.045100
21
179.705594
0
LINE
8
Layer_1
10
235.045100
20
179.705594
11
235.141673
21
180.662590
0
LINE
8
Layer_1
10
24.406896
20
151.115284
11
23.450190
21
150.925049
0
LINE
8
Layer_1
10
23.450190
20
150.925049
11
22.639164
21
150.383183
0
LINE
8
Layer_1
10
22.639164
20
150.383183
11
22.097245
21
149.571971
0
LINE
8
Layer_1
10
22.097245
20
149.571971
11
21.906931
21
148.615239
0
LINE
8
Layer_1
10
21.906931
20
148.615239
11
21.710478
21
147.642367
0
LINE
8
Layer_1
10
21.710478
20
147.642367
11
21.174697
21
146.847560
0
LINE
8
Layer_1
10
21.174697
20
146.847560
11
20.380049
21
146.311779
0
LINE
8
Layer_1
10
20.380049
20
146.311779
11
19.406939
21
146.115459
0
LINE
8
Layer_1
10
256.405679
20
151.115284
11
24.406896
21
151.115284
0
LINE
8
Layer_1
10
261.405504
20
146.115459
11
260.432633
21
146.311779
0
LINE
8
Layer_1
10
260.432633
20
146.311779
11
259.637825
21
146.847560
0
LINE
8
Layer_1
10
259.637825
20
146.847560
11
259.102045
21
147.642367
0
LINE
8
Layer_1
10
259.102045
20
147.642367
11
258.905724
21
148.615239
0
LINE
8
Layer_1
10
258.905724
20
148.615239
11
258.715224
21
149.571971
0
LINE
8
Layer_1
10
258.715224
20
149.571971
11
258.173358
21
150.383183
0
LINE
8
Layer_1
10
258.173358
20
150.383183
11
257.362412
21
150.925049
0
LINE
8
Layer_1
10
257.362412
20
150.925049
11
256.405679
21
151.115284
0
LINE
8
Layer_1
10
19.406939
20
146.115459
11
1.907036
21
146.115459
0
LINE
8
Layer_1
10
1.907036
20
146.115459
11
1.907036
21
206.114946
0
LINE
8
Layer_1
10
1.907036
20
206.114946
11
278.905818
21
206.114946
0
LINE
8
Layer_1
10
278.905818
20
206.114946
11
278.905818
21
146.115459
0
LINE
8
Layer_1
10
278.905818
20
146.115459
11
261.405504
21
146.115459
0
LINE
8
Layer_1
10
256.405415
20
5.133201
11
257.362147
21
4.942701
0
LINE
8
Layer_1
10
257.362147
20
4.942701
11
258.173358
21
4.400306
0
LINE
8
Layer_1
10
258.173358
20
4.400306
11
258.715224
21
3.588036
0
LINE
8
Layer_1
10
258.715224
20
3.588036
11
258.905460
21
2.632892
0
LINE
8
Layer_1
10
258.905460
20
2.632892
11
259.102045
21
1.659226
0
LINE
8
Layer_1
10
259.102045
20
1.659226
11
259.637825
21
0.865477
0
LINE
8
Layer_1
10
259.637825
20
0.865477
11
260.432368
21
0.328374
0
LINE
8
Layer_1
10
260.432368
20
0.328374
11
261.405504
21
0.132582
0
LINE
8
Layer_1
10
24.406764
20
5.133201
11
256.405415
21
5.133201
0
LINE
8
Layer_1
10
19.406807
20
0.132582
11
20.379916
21
0.328374
0
LINE
8
Layer_1
10
20.379916
20
0.328374
11
21.174565
21
0.865477
0
LINE
8
Layer_1
10
21.174565
20
0.865477
11
21.710319
21
1.659226
0
LINE
8
Layer_1
10
21.710319
20
1.659226
11
21.906798
21
2.632892
0
LINE
8
Layer_1
10
21.906798
20
2.632892
11
22.097086
21
3.588036
0
LINE
8
Layer_1
10
22.097086
20
3.588036
11
22.639005
21
4.400306
0
LINE
8
Layer_1
10
22.639005
20
4.400306
11
23.450032
21
4.942701
0
LINE
8
Layer_1
10
23.450032
20
4.942701
11
24.406764
21
5.133201
0
LINE
8
Layer_1
10
261.405504
20
0.132582
11
278.905818
21
0.132582
0
LINE
8
Layer_1
10
278.905818
20
0.132582
11
278.905818
21
60.132598
0
LINE
8
Layer_1
10
278.905818
20
60.132598
11
1.906879
21
60.132598
0
LINE
8
Layer_1
10
1.906879
20
60.132598
11
1.906879
21
0.132582
0
LINE
8
Layer_1
10
1.906879
20
0.132582
11
19.406807
21
0.132582
0
LINE
8
Layer_1
10
148.406074
20
30.133649
11
148.243355
21
31.744959
0
LINE
8
Layer_1
10
148.243355
20
31.744959
11
147.776895
21
33.245939
0
LINE
8
Layer_1
10
147.776895
20
33.245939
11
147.039238
21
34.604572
0
LINE
8
Layer_1
10
147.039238
20
34.604572
11
146.062398
21
35.788317
0
LINE
8
Layer_1
10
146.062398
20
35.788317
11
144.878389
21
36.764892
0
LINE
8
Layer_1
10
144.878389
20
36.764892
11
143.519755
21
37.502021
0
LINE
8
Layer_1
10
143.519755
20
37.502021
11
142.018246
21
37.968216
0
LINE
8
Layer_1
10
142.018246
20
37.968216
11
140.406142
21
38.130670
0
LINE
8
Layer_1
10
140.406142
20
38.130670
11
138.794303
21
37.968216
0
LINE
8
Layer_1
10
138.794303
20
37.968216
11
137.292794
21
37.502021
0
LINE
8
Layer_1
10
137.292794
20
37.502021
11
135.933896
21
36.764892
0
LINE
8
Layer_1
10
135.933896
20
36.764892
11
134.750151
21
35.788317
0
LINE
8
Layer_1
10
134.750151
20
35.788317
11
133.773311
21
34.604572
0
LINE
8
Layer_1
10
133.773311
20
34.604572
11
133.035389
21
33.245939
0
LINE
8
Layer_1
10
133.035389
20
33.245939
11
132.569194
21
31.744959
0
LINE
8
Layer_1
10
132.569194
20
31.744959
11
132.406211
21
30.133649
0
LINE
8
Layer_1
10
132.406211
20
30.133649
11
132.569194
21
28.519692
0
LINE
8
Layer_1
10
132.569194
20
28.519692
11
133.035389
21
27.019507
0
LINE
8
Layer_1
10
133.035389
20
27.019507
11
133.773311
21
25.659550
0
LINE
8
Layer_1
10
133.773311
20
25.659550
11
134.750151
21
24.476864
0
LINE
8
Layer_1
10
134.750151
20
24.476864
11
135.933896
21
23.500553
0
LINE
8
Layer_1
10
135.933896
20
23.500553
11
137.292794
21
22.762366
0
LINE
8
Layer_1
10
137.292794
20
22.762366
11
138.794303
21
22.296700
0
LINE
8
Layer_1
10
138.794303
20
22.296700
11
140.406142
21
22.135305
0
LINE
8
Layer_1
10
140.406142
20
22.135305
11
142.018246
21
22.296700
0
LINE
8
Layer_1
10
142.018246
20
22.296700
11
143.519755
21
22.762366
0
LINE
8
Layer_1
10
143.519755
20
22.762366
11
144.878389
21
23.500553
0
LINE
8
Layer_1
10
144.878389
20
23.500553
11
146.062398
21
24.476864
0
LINE
8
Layer_1
10
146.062398
20
24.476864
11
147.039238
21
25.659550
0
LINE
8
Layer_1
10
147.039238
20
25.659550
11
147.776895
21
27.019507
0
LINE
8
Layer_1
10
147.776895
20
27.019507
11
148.243355
21
28.519692
0
LINE
8
Layer_1
10
148.243355
20
28.519692
11
148.406074
21
30.133649
0
LINE
8
Layer_1
10
19.406807
20
0.132582
11
20.379916
21
0.328374
0
LINE
8
Layer_1
10
20.379916
20
0.328374
11
21.174565
21
0.865477
0
LINE
8
Layer_1
10
21.174565
20
0.865477
11
21.710319
21
1.659226
0
LINE
8
Layer_1
10
21.710319
20
1.659226
11
21.906798
21
2.632892
0
LINE
8
Layer_1
10
21.906798
20
2.632892
11
22.097086
21
3.588036
0
LINE
8
Layer_1
10
22.097086
20
3.588036
11
22.639005
21
4.400306
0
LINE
8
Layer_1
10
22.639005
20
4.400306
11
23.450032
21
4.942701
0
LINE
8
Layer_1
10
23.450032
20
4.942701
11
24.406764
21
5.133201
0
LINE
8
Layer_1
10
256.405415
20
5.133201
11
257.362147
21
4.942701
0
LINE
8
Layer_1
10
257.362147
20
4.942701
11
258.173358
21
4.400306
0
LINE
8
Layer_1
10
258.173358
20
4.400306
11
258.715224
21
3.588036
0
LINE
8
Layer_1
10
258.715224
20
3.588036
11
258.905460
21
2.632892
0
LINE
8
Layer_1
10
258.905460
20
2.632892
11
259.102045
21
1.659226
0
LINE
8
Layer_1
10
259.102045
20
1.659226
11
259.637825
21
0.865477
0
LINE
8
Layer_1
10
259.637825
20
0.865477
11
260.432368
21
0.328374
0
LINE
8
Layer_1
10
260.432368
20
0.328374
11
261.405504
21
0.132582
0
LINE
8
Layer_1
10
24.406764
20
5.133201
11
256.405415
21
5.133201
0
LINE
8
Layer_1
10
148.406074
20
30.133649
11
148.243355
21
31.744959
0
LINE
8
Layer_1
10
148.243355
20
31.744959
11
147.776895
21
33.245939
0
LINE
8
Layer_1
10
147.776895
20
33.245939
11
147.039238
21
34.604572
0
LINE
8
Layer_1
10
147.039238
20
34.604572
11
146.062398
21
35.788317
0
LINE
8
Layer_1
10
146.062398
20
35.788317
11
144.878389
21
36.764892
0
LINE
8
Layer_1
10
144.878389
20
36.764892
11
143.519755
21
37.502021
0
LINE
8
Layer_1
10
143.519755
20
37.502021
11
142.018246
21
37.968216
0
LINE
8
Layer_1
10
142.018246
20
37.968216
11
140.406142
21
38.130670
0
LINE
8
Layer_1
10
140.406142
20
38.130670
11
138.794303
21
37.968216
0
LINE
8
Layer_1
10
138.794303
20
37.968216
11
137.292794
21
37.502021
0
LINE
8
Layer_1
10
137.292794
20
37.502021
11
135.933896
21
36.764892
0
LINE
8
Layer_1
10
135.933896
20
36.764892
11
134.750151
21
35.788317
0
LINE
8
Layer_1
10
134.750151
20
35.788317
11
133.773311
21
34.604572
0
LINE
8
Layer_1
10
133.773311
20
34.604572
11
133.035389
21
33.245939
0
LINE
8
Layer_1
10
133.035389
20
33.245939
11
132.569194
21
31.744959
0
LINE
8
Layer_1
10
132.569194
20
31.744959
11
132.406211
21
30.133649
0
LINE
8
Layer_1
10
132.406211
20
30.133649
11
132.569194
21
28.519692
0
LINE
8
Layer_1
10
132.569194
20
28.519692
11
133.035389
21
27.019507
0
LINE
8
Layer_1
10
133.035389
20
27.019507
11
133.773311
21
25.659550
0
LINE
8
Layer_1
10
133.773311
20
25.659550
11
134.750151
21
24.476864
0
LINE
8
Layer_1
10
134.750151
20
24.476864
11
135.933896
21
23.500553
0
LINE
8
Layer_1
10
135.933896
20
23.500553
11
137.292794
21
22.762366
0
LINE
8
Layer_1
10
137.292794
20
22.762366
11
138.794303
21
22.296700
0
LINE
8
Layer_1
10
138.794303
20
22.296700
11
140.406142
21
22.135305
0
LINE
8
Layer_1
10
140.406142
20
22.135305
11
142.018246
21
22.296700
0
LINE
8
Layer_1
10
142.018246
20
22.296700
11
143.519755
21
22.762366
0
LINE
8
Layer_1
10
143.519755
20
22.762366
11
144.878389
21
23.500553
0
LINE
8
Layer_1
10
144.878389
20
23.500553
11
146.062398
21
24.476864
0
LINE
8
Layer_1
10
146.062398
20
24.476864
11
147.039238
21
25.659550
0
LINE
8
Layer_1
10
147.039238
20
25.659550
11
147.776895
21
27.019507
0
LINE
8
Layer_1
10
147.776895
20
27.019507
11
148.243355
21
28.519692
0
LINE
8
Layer_1
10
148.243355
20
28.519692
11
148.406074
21
30.133649
0
LINE
8
Layer_1
10
261.405504
20
0.132582
11
278.905818
21
0.132582
0
LINE
8
Layer_1
10
278.905818
20
0.132582
11
278.905818
21
60.132598
0
LINE
8
Layer_1
10
278.905818
20
60.132598
11
1.906879
21
60.132598
0
LINE
8
Layer_1
10
1.906879
20
60.132598
11
1.906879
21
0.132582
0
LINE
8
Layer_1
10
1.906879
20
0.132582
11
19.406807
21
0.132582
0
LINE
8
Layer_1
10
258.905724
20
76.882554
11
259.102045
21
75.909418
0
LINE
8
Layer_1
10
259.102045
20
75.909418
11
259.637825
21
75.114875
0
LINE
8
Layer_1
10
259.637825
20
75.114875
11
260.432633
21
74.579095
0
LINE
8
Layer_1
10
260.432633
20
74.579095
11
261.405504
21
74.382774
0
LINE
8
Layer_1
10
19.406939
20
74.382774
11
20.380049
21
74.579095
0
LINE
8
Layer_1
10
20.380049
20
74.579095
11
21.174697
21
75.114875
0
LINE
8
Layer_1
10
21.174697
20
75.114875
11
21.710478
21
75.909418
0
LINE
8
Layer_1
10
21.710478
20
75.909418
11
21.906931
21
76.882554
0
LINE
8
Layer_1
10
21.906931
20
76.882554
11
22.097245
21
77.839287
0
LINE
8
Layer_1
10
22.097245
20
77.839287
11
22.639164
21
78.650498
0
LINE
8
Layer_1
10
22.639164
20
78.650498
11
23.450190
21
79.192364
0
LINE
8
Layer_1
10
23.450190
20
79.192364
11
24.406896
21
79.382599
0
LINE
8
Layer_1
10
261.405504
20
74.382774
11
272.905075
21
74.382774
0
LINE
8
Layer_1
10
272.905075
20
74.382774
11
272.905075
21
134.382526
0
LINE
8
Layer_1
10
272.905075
20
134.382526
11
7.906971
21
134.382526
0
LINE
8
Layer_1
10
7.906971
20
134.382526
11
7.906971
21
74.382774
0
LINE
8
Layer_1
10
7.906971
20
74.382774
11
19.406939
21
74.382774
0
LINE
8
Layer_1
10
256.405679
20
79.382599
11
257.362412
21
79.192364
0
LINE
8
Layer_1
10
257.362412
20
79.192364
11
258.173358
21
78.650498
0
LINE
8
Layer_1
10
258.173358
20
78.650498
11
258.715224
21
77.839287
0
LINE
8
Layer_1
10
258.715224
20
77.839287
11
258.905724
21
76.882554
0
LINE
8
Layer_1
10
24.406896
20
79.382599
11
256.405679
21
79.382599
0
LINE
8
Layer_1
10
24.406896
20
79.382599
11
23.450190
21
79.192364
0
LINE
8
Layer_1
10
23.450190
20
79.192364
11
22.639164
21
78.650498
0
LINE
8
Layer_1
10
22.639164
20
78.650498
11
22.097245
21
77.839287
0
LINE
8
Layer_1
10
22.097245
20
77.839287
11
21.906931
21
76.882554
0
LINE
8
Layer_1
10
21.906931
20
76.882554
11
21.710478
21
75.909418
0
LINE
8
Layer_1
10
21.710478
20
75.909418
11
21.174697
21
75.114875
0
LINE
8
Layer_1
10
21.174697
20
75.114875
11
20.380049
21
74.579095
0
LINE
8
Layer_1
10
20.380049
20
74.579095
11
19.406939
21
74.382774
0
LINE
8
Layer_1
10
256.405679
20
79.382599
11
24.406896
21
79.382599
0
LINE
8
Layer_1
10
261.405504
20
74.382774
11
260.432633
21
74.579095
0
LINE
8
Layer_1
10
260.432633
20
74.579095
11
259.637825
21
75.114875
0
LINE
8
Layer_1
10
259.637825
20
75.114875
11
259.102045
21
75.909418
0
LINE
8
Layer_1
10
259.102045
20
75.909418
11
258.905724
21
76.882554
0
LINE
8
Layer_1
10
258.905724
20
76.882554
11
258.715224
21
77.839287
0
LINE
8
Layer_1
10
258.715224
20
77.839287
11
258.173358
21
78.650498
0
LINE
8
Layer_1
10
258.173358
20
78.650498
11
257.362412
21
79.192364
0
LINE
8
Layer_1
10
257.362412
20
79.192364
11
256.405679
21
79.382599
0
LINE
8
Layer_1
10
19.406939
20
74.382774
11
7.906971
21
74.382774
0
LINE
8
Layer_1
10
7.906971
20
74.382774
11
7.906971
21
134.382526
0
LINE
8
Layer_1
10
7.906971
20
134.382526
11
272.905075
21
134.382526
0
LINE
8
Layer_1
10
272.905075
20
134.382526
11
272.905075
21
74.382774
0
LINE
8
Layer_1
10
272.905075
20
74.382774
11
261.405504
21
74.382774
0
LINE
8
Layer_1
10
19.406939
20
217.847879
11
20.380049
21
218.044464
0
LINE
8
Layer_1
10
20.380049
20
218.044464
11
21.174697
21
218.580245
0
LINE
8
Layer_1
10
21.174697
20
218.580245
11
21.710478
21
219.374787
0
LINE
8
Layer_1
10
21.710478
20
219.374787
11
21.906931
21
220.347924
0
LINE
8
Layer_1
10
21.906931
20
220.347924
11
22.097245
21
221.304656
0
LINE
8
Layer_1
10
22.097245
20
221.304656
11
22.639164
21
222.115603
0
LINE
8
Layer_1
10
22.639164
20
222.115603
11
23.450190
21
222.657733
0
LINE
8
Layer_1
10
23.450190
20
222.657733
11
24.406896
21
222.847968
0
LINE
8
Layer_1
10
256.405679
20
222.847968
11
257.362412
21
222.657733
0
LINE
8
Layer_1
10
257.362412
20
222.657733
11
258.173358
21
222.115603
0
LINE
8
Layer_1
10
258.173358
20
222.115603
11
258.715224
21
221.304656
0
LINE
8
Layer_1
10
258.715224
20
221.304656
11
258.905724
21
220.347924
0
LINE
8
Layer_1
10
258.905724
20
220.347924
11
259.102045
21
219.374787
0
LINE
8
Layer_1
10
259.102045
20
219.374787
11
259.637825
21
218.580245
0
LINE
8
Layer_1
10
259.637825
20
218.580245
11
260.432633
21
218.044464
0
LINE
8
Layer_1
10
260.432633
20
218.044464
11
261.405504
21
217.847879
0
LINE
8
Layer_1
10
24.406896
20
222.847968
11
256.405679
21
222.847968
0
LINE
8
Layer_1
10
261.405504
20
217.847879
11
272.905075
21
217.847879
0
LINE
8
Layer_1
10
272.905075
20
217.847879
11
272.905075
21
277.847736
0
LINE
8
Layer_1
10
272.905075
20
277.847736
11
7.906971
21
277.847736
0
LINE
8
Layer_1
10
7.906971
20
277.847736
11
7.906971
21
217.847879
0
LINE
8
Layer_1
10
7.906971
20
217.847879
11
19.406939
21
217.847879
0
LINE
8
Layer_1
10
24.406896
20
222.847968
11
23.450190
21
222.657733
0
LINE
8
Layer_1
10
23.450190
20
222.657733
11
22.639164
21
222.115603
0
LINE
8
Layer_1
10
22.639164
20
222.115603
11
22.097245
21
221.304656
0
LINE
8
Layer_1
10
22.097245
20
221.304656
11
21.906931
21
220.347924
0
LINE
8
Layer_1
10
21.906931
20
220.347924
11
21.710478
21
219.374787
0
LINE
8
Layer_1
10
21.710478
20
219.374787
11
21.174697
21
218.580245
0
LINE
8
Layer_1
10
21.174697
20
218.580245
11
20.380049
21
218.044464
0
LINE
8
Layer_1
10
20.380049
20
218.044464
11
19.406939
21
217.847879
0
LINE
8
Layer_1
10
256.405679
20
222.847968
11
24.406896
21
222.847968
0
LINE
8
Layer_1
10
261.405504
20
217.847879
11
260.432633
21
218.044464
0
LINE
8
Layer_1
10
260.432633
20
218.044464
11
259.637825
21
218.580245
0
LINE
8
Layer_1
10
259.637825
20
218.580245
11
259.102045
21
219.374787
0
LINE
8
Layer_1
10
259.102045
20
219.374787
11
258.905724
21
220.347924
0
LINE
8
Layer_1
10
258.905724
20
220.347924
11
258.715224
21
221.304656
0
LINE
8
Layer_1
10
258.715224
20
221.304656
11
258.173358
21
222.115603
0
LINE
8
Layer_1
10
258.173358
20
222.115603
11
257.362412
21
222.657733
0
LINE
8
Layer_1
10
257.362412
20
222.657733
11
256.405679
21
222.847968
0
LINE
8
Layer_1
10
19.406939
20
217.847879
11
7.906971
21
217.847879
0
LINE
8
Layer_1
10
7.906971
20
217.847879
11
7.906971
21
277.847736
0
LINE
8
Layer_1
10
7.906971
20
277.847736
11
272.905075
21
277.847736
0
LINE
8
Layer_1
10
272.905075
20
277.847736
11
272.905075
21
217.847879
0
LINE
8
Layer_1
10
272.905075
20
217.847879
11
261.405504
21
217.847879
 0 
ENDSEC
 0 
EOF