M48
;GenerationSoftware,Autodesk,EAGLE,9.7.0*%
;CreationDate,2024-03-18T14:39:49Z*%
FMAT,2
ICI,OFF
METRIC,TZ,000.000
T11C0.850
T10C0.950
T9C1.000
T8C1.016
T7C1.020
T6C2.200
T5C2.500
T4C2.540
T3C2.700
T2C3.160
T1C3.640
%
G90
M71
T1
X85090Y58170
T2
X91290Y58170
X88040Y63070
T3
X45000Y5000
X45000Y95000
X95000Y5000
X95000Y95000
X95000Y95000
X95000Y5000
X45000Y95000
X45000Y5000
T4
X93748Y12600
X93748Y30380
T5
X48028Y12600
X48028Y30380
T6
X95590Y58170
T7
X61998Y31650
X77238Y31650
X51838Y11330
X54378Y11330
X56918Y11330
X59458Y11330
X61998Y11330
X64538Y11330
X67078Y11330
X69618Y11330
X72158Y11330
X74698Y11330
X77238Y11330
X79778Y11330
X82318Y11330
X84858Y11330
X87398Y11330
X89938Y31650
X87398Y31650
X84858Y31650
X82318Y31650
X79778Y31650
X74698Y31650
X89938Y11330
X72158Y31650
X69618Y31650
X67078Y31650
X64538Y31650
T8
X52697Y91463
X60000Y87540
X52697Y88923
X60000Y85000
X52697Y86383
X52697Y83843
X52697Y81303
X47000Y56270
X47000Y53730
X47000Y43810
X47000Y41270
X47000Y38730
X47000Y36190
T9
X57614Y59926
X60154Y59926
X55074Y59926
X52534Y59926
X49994Y59926
X47454Y59926
X44914Y59926
T10
X47964Y68319
X50504Y68319
X53044Y68319
X55584Y68319
X58124Y68319
X60664Y68319
X63204Y68319
X63204Y75939
X60664Y75939
X58124Y75939
X55584Y75939
X53044Y75939
X50504Y75939
X47964Y75939
T11
X91800Y39910
X95300Y39910
M30