G04 EAGLE Gerber RS-274X export*
G75*
%MOMM*%
%FSLAX34Y34*%
%LPD*%
%INBottom Copper*%
%IPPOS*%
%AMOC8*
5,1,8,0,0,1.08239X$1,22.5*%
G01*
G04 Define Apertures*
%ADD10R,1.358000X1.358000*%
%ADD11C,1.358000*%
%ADD12C,1.508000*%
%ADD13R,4.340000X4.340000*%
%ADD14C,5.000000*%
%ADD15C,4.540000*%
%ADD16C,7.550000*%
%ADD17R,1.458000X1.458000*%
%ADD18C,1.458000*%
%ADD19C,1.879600*%
%ADD20R,1.530000X1.530000*%
%ADD21C,3.516000*%
%ADD22C,1.530000*%
%ADD23C,1.524000*%
%ADD24C,1.100000*%
%ADD25C,1.270000*%
G36*
X902787Y60503D02*
X900311Y60000D01*
X499689Y60000D01*
X496603Y60801D01*
X494683Y62444D01*
X493556Y64707D01*
X492752Y67708D01*
X486712Y78170D01*
X478170Y86712D01*
X475168Y88445D01*
X474072Y89244D01*
X472578Y91282D01*
X471996Y93742D01*
X472420Y96233D01*
X473782Y98362D01*
X475866Y99791D01*
X478343Y100294D01*
X483665Y100294D01*
X490203Y102046D01*
X496789Y105848D01*
X496829Y105780D01*
X497432Y106194D01*
X499900Y106736D01*
X502385Y106273D01*
X504492Y104877D01*
X509443Y99926D01*
X515242Y97524D01*
X521518Y97524D01*
X528160Y100275D01*
X528510Y100515D01*
X530979Y101057D01*
X533463Y100594D01*
X533853Y100336D01*
X540642Y97524D01*
X546918Y97524D01*
X553560Y100275D01*
X553910Y100515D01*
X556379Y101057D01*
X558863Y100594D01*
X559253Y100336D01*
X566042Y97524D01*
X572318Y97524D01*
X578118Y99926D01*
X581598Y103407D01*
X583565Y104744D01*
X586038Y105266D01*
X588518Y104783D01*
X591532Y103535D01*
X591532Y123069D01*
X588518Y121821D01*
X586190Y121338D01*
X583705Y121802D01*
X581598Y123197D01*
X578118Y126678D01*
X572318Y129080D01*
X566042Y129080D01*
X559400Y126329D01*
X559050Y126089D01*
X556581Y125547D01*
X554097Y126010D01*
X553707Y126268D01*
X546918Y129080D01*
X540642Y129080D01*
X534000Y126329D01*
X533650Y126089D01*
X531181Y125547D01*
X528697Y126010D01*
X528307Y126268D01*
X521518Y129080D01*
X515242Y129080D01*
X513676Y128432D01*
X510568Y127984D01*
X508159Y128749D01*
X506239Y130393D01*
X505112Y132655D01*
X504236Y135925D01*
X500852Y141787D01*
X496065Y146574D01*
X490203Y149958D01*
X483665Y151710D01*
X476895Y151710D01*
X470357Y149958D01*
X464495Y146574D01*
X459709Y141787D01*
X456324Y135925D01*
X454572Y129387D01*
X454572Y122617D01*
X456324Y116079D01*
X459709Y110217D01*
X463881Y106044D01*
X464732Y104988D01*
X465649Y102633D01*
X465574Y100107D01*
X464520Y97810D01*
X462653Y96106D01*
X460270Y95265D01*
X457748Y95420D01*
X456040Y95878D01*
X443960Y95878D01*
X432292Y92752D01*
X429525Y91154D01*
X426552Y90307D01*
X424061Y90730D01*
X421932Y92092D01*
X420503Y94177D01*
X420000Y96653D01*
X420000Y903347D01*
X420752Y906345D01*
X422365Y908291D01*
X424609Y909453D01*
X427129Y909649D01*
X429525Y908846D01*
X432292Y907249D01*
X443960Y904122D01*
X456040Y904122D01*
X467708Y907249D01*
X478170Y913288D01*
X486712Y921830D01*
X492752Y932292D01*
X493556Y935294D01*
X495128Y938068D01*
X497213Y939497D01*
X499689Y940000D01*
X900311Y940000D01*
X903398Y939199D01*
X905317Y937556D01*
X906444Y935294D01*
X907249Y932292D01*
X913288Y921830D01*
X921830Y913288D01*
X932292Y907249D01*
X943960Y904122D01*
X956040Y904122D01*
X967708Y907249D01*
X970475Y908846D01*
X973448Y909693D01*
X975939Y909270D01*
X978068Y907908D01*
X979497Y905823D01*
X980000Y903347D01*
X980000Y604043D01*
X979609Y601849D01*
X978281Y599698D01*
X976220Y598236D01*
X973751Y597694D01*
X971267Y598157D01*
X970142Y598903D01*
X970132Y598886D01*
X964392Y602201D01*
X958796Y603700D01*
X953004Y603700D01*
X947408Y602201D01*
X942392Y599304D01*
X941181Y598094D01*
X939261Y596777D01*
X936792Y596235D01*
X934308Y596698D01*
X932201Y598094D01*
X928398Y601897D01*
X922642Y605220D01*
X916223Y606940D01*
X915948Y606940D01*
X915948Y556460D01*
X916223Y556460D01*
X922642Y558180D01*
X928398Y561503D01*
X932201Y565306D01*
X934121Y566623D01*
X936590Y567165D01*
X939074Y566702D01*
X941181Y565306D01*
X942392Y564096D01*
X947408Y561199D01*
X953004Y559700D01*
X958796Y559700D01*
X964392Y561199D01*
X970035Y564457D01*
X970988Y565122D01*
X973448Y565704D01*
X975939Y565280D01*
X978068Y563918D01*
X979497Y561834D01*
X980000Y559357D01*
X980000Y96653D01*
X979248Y93655D01*
X977635Y91709D01*
X975391Y90547D01*
X972871Y90351D01*
X970475Y91154D01*
X967708Y92752D01*
X955716Y95965D01*
X954009Y96269D01*
X951858Y97597D01*
X950396Y99658D01*
X949854Y102127D01*
X950317Y104611D01*
X951713Y106718D01*
X956445Y111450D01*
X959565Y116854D01*
X961180Y122882D01*
X961180Y129122D01*
X959565Y135150D01*
X956445Y140554D01*
X952032Y144967D01*
X946628Y148087D01*
X940600Y149702D01*
X934360Y149702D01*
X928332Y148087D01*
X922928Y144967D01*
X918515Y140554D01*
X915395Y135150D01*
X913564Y128315D01*
X913498Y128332D01*
X913353Y127553D01*
X911991Y125424D01*
X909907Y123995D01*
X907430Y123492D01*
X902428Y123492D01*
X902428Y103112D01*
X907535Y103112D01*
X908469Y103499D01*
X909183Y104213D01*
X909596Y105209D01*
X909961Y107259D01*
X911289Y109410D01*
X913350Y110872D01*
X915819Y111414D01*
X918303Y110951D01*
X920410Y109555D01*
X922928Y107037D01*
X928332Y103917D01*
X929438Y103621D01*
X931456Y102675D01*
X933190Y100836D01*
X934068Y98466D01*
X933953Y95942D01*
X932863Y93662D01*
X930969Y91988D01*
X921830Y86712D01*
X913288Y78170D01*
X907249Y67708D01*
X906444Y64707D01*
X904872Y61932D01*
X902787Y60503D01*
G37*
%LPC*%
G36*
X530015Y917681D02*
X538626Y917681D01*
X537088Y921395D01*
X533729Y924753D01*
X530015Y926292D01*
X530015Y917681D01*
G37*
G36*
X515308Y917681D02*
X523919Y917681D01*
X523919Y926292D01*
X520205Y924753D01*
X516847Y921395D01*
X515308Y917681D01*
G37*
G36*
X523481Y795507D02*
X530453Y795507D01*
X536895Y798175D01*
X541825Y803105D01*
X544493Y809547D01*
X544493Y816519D01*
X541683Y823303D01*
X541200Y825682D01*
X541683Y828163D01*
X544493Y834947D01*
X544493Y841919D01*
X541683Y848703D01*
X541200Y851082D01*
X541683Y853563D01*
X544493Y860347D01*
X544493Y867319D01*
X541683Y874103D01*
X541200Y876482D01*
X541683Y878963D01*
X544493Y885747D01*
X544493Y892719D01*
X541825Y899161D01*
X538924Y902061D01*
X537587Y904028D01*
X537065Y906501D01*
X537548Y908981D01*
X538626Y911585D01*
X515308Y911585D01*
X516386Y908981D01*
X516869Y906653D01*
X516406Y904168D01*
X515010Y902061D01*
X512109Y899161D01*
X509441Y892719D01*
X509441Y885747D01*
X512251Y878963D01*
X512734Y876584D01*
X512251Y874103D01*
X509441Y867319D01*
X509441Y860347D01*
X512251Y853563D01*
X512734Y851184D01*
X512251Y848703D01*
X509441Y841919D01*
X509441Y834947D01*
X512251Y828163D01*
X512734Y825784D01*
X512251Y823303D01*
X509441Y816519D01*
X509441Y809547D01*
X512109Y803105D01*
X517039Y798175D01*
X523481Y795507D01*
G37*
G36*
X846539Y548572D02*
X855261Y548572D01*
X863687Y550830D01*
X871241Y555191D01*
X877409Y561359D01*
X880955Y567501D01*
X883105Y569721D01*
X885475Y570600D01*
X888000Y570485D01*
X890279Y569394D01*
X891953Y567501D01*
X892703Y566202D01*
X897402Y561503D01*
X903158Y558180D01*
X909577Y556460D01*
X909852Y556460D01*
X909852Y607152D01*
X908701Y607367D01*
X906572Y608729D01*
X905143Y610813D01*
X904640Y613290D01*
X904640Y627652D01*
X877352Y627652D01*
X877352Y654940D01*
X861478Y654940D01*
X859189Y655367D01*
X857060Y656729D01*
X855631Y658813D01*
X855128Y661290D01*
X855128Y720211D01*
X853053Y725220D01*
X693515Y884758D01*
X693215Y885194D01*
X690842Y887434D01*
X690712Y887561D01*
X688854Y889419D01*
X686398Y890355D01*
X686229Y890422D01*
X683801Y891428D01*
X681174Y891353D01*
X680992Y891350D01*
X677729Y891350D01*
X677212Y891240D01*
X613409Y889417D01*
X610798Y889897D01*
X603486Y892926D01*
X596514Y892926D01*
X590072Y890258D01*
X585142Y885328D01*
X582474Y878886D01*
X582474Y871914D01*
X585284Y865130D01*
X585767Y862751D01*
X585284Y860270D01*
X582474Y853486D01*
X582474Y846514D01*
X585142Y840072D01*
X590072Y835142D01*
X596514Y832474D01*
X603486Y832474D01*
X609928Y835142D01*
X614858Y840072D01*
X617526Y846514D01*
X617526Y853486D01*
X617458Y853650D01*
X616986Y855697D01*
X617339Y858199D01*
X618639Y860366D01*
X620682Y861854D01*
X623143Y862428D01*
X673059Y863854D01*
X675624Y863392D01*
X677731Y861997D01*
X826012Y713715D01*
X827369Y711702D01*
X827872Y709225D01*
X827872Y608152D01*
X827408Y605769D01*
X826012Y603662D01*
X824391Y602041D01*
X820030Y594487D01*
X817772Y586061D01*
X817772Y577339D01*
X820030Y568913D01*
X824391Y561359D01*
X830559Y555191D01*
X838113Y550830D01*
X846539Y548572D01*
G37*
G36*
X476571Y743970D02*
X482705Y743970D01*
X488978Y746569D01*
X489768Y747110D01*
X492237Y747653D01*
X494721Y747189D01*
X495592Y746612D01*
X501971Y743970D01*
X508105Y743970D01*
X514378Y746569D01*
X515168Y747110D01*
X517637Y747653D01*
X520121Y747189D01*
X520992Y746612D01*
X527371Y743970D01*
X533505Y743970D01*
X539778Y746569D01*
X540568Y747110D01*
X543037Y747653D01*
X545521Y747189D01*
X546392Y746612D01*
X552771Y743970D01*
X558905Y743970D01*
X565178Y746569D01*
X565968Y747110D01*
X568437Y747653D01*
X570921Y747189D01*
X571792Y746612D01*
X578171Y743970D01*
X584305Y743970D01*
X590578Y746569D01*
X591368Y747110D01*
X593837Y747653D01*
X596321Y747189D01*
X597192Y746612D01*
X603571Y743970D01*
X609705Y743970D01*
X615978Y746569D01*
X616768Y747110D01*
X619237Y747653D01*
X621721Y747189D01*
X622592Y746612D01*
X628971Y743970D01*
X635105Y743970D01*
X640772Y746317D01*
X645109Y750654D01*
X647456Y756321D01*
X647456Y762455D01*
X645109Y768122D01*
X640772Y772459D01*
X635105Y774806D01*
X628971Y774806D01*
X622698Y772208D01*
X621908Y771666D01*
X619439Y771123D01*
X616955Y771587D01*
X616084Y772164D01*
X609705Y774806D01*
X603571Y774806D01*
X597298Y772208D01*
X596508Y771666D01*
X594039Y771123D01*
X591555Y771587D01*
X590684Y772164D01*
X584305Y774806D01*
X578171Y774806D01*
X571898Y772208D01*
X571108Y771666D01*
X568639Y771123D01*
X566155Y771587D01*
X565284Y772164D01*
X558905Y774806D01*
X552771Y774806D01*
X546498Y772208D01*
X545708Y771666D01*
X543239Y771123D01*
X540755Y771587D01*
X539884Y772164D01*
X533505Y774806D01*
X527371Y774806D01*
X521098Y772208D01*
X520308Y771666D01*
X517839Y771123D01*
X515355Y771587D01*
X514484Y772164D01*
X508105Y774806D01*
X501971Y774806D01*
X495698Y772208D01*
X494908Y771666D01*
X492439Y771123D01*
X489955Y771587D01*
X489084Y772164D01*
X482705Y774806D01*
X476571Y774806D01*
X470904Y772459D01*
X466567Y768122D01*
X464220Y762455D01*
X464220Y756321D01*
X466567Y750654D01*
X470904Y746317D01*
X476571Y743970D01*
G37*
G36*
X557120Y225522D02*
X762880Y225522D01*
X768201Y227726D01*
X784654Y244179D01*
X786858Y249500D01*
X786858Y294445D01*
X787267Y296687D01*
X788612Y298826D01*
X790685Y300272D01*
X793158Y300794D01*
X793519Y300724D01*
X800918Y300724D01*
X807560Y303475D01*
X807910Y303715D01*
X810379Y304257D01*
X812863Y303794D01*
X813253Y303536D01*
X820042Y300724D01*
X826318Y300724D01*
X832960Y303475D01*
X833310Y303715D01*
X835779Y304257D01*
X838263Y303794D01*
X838653Y303536D01*
X845442Y300724D01*
X851718Y300724D01*
X858360Y303475D01*
X858710Y303715D01*
X861179Y304257D01*
X863663Y303794D01*
X864053Y303536D01*
X870842Y300724D01*
X877118Y300724D01*
X883760Y303475D01*
X884110Y303715D01*
X886579Y304257D01*
X889063Y303794D01*
X889453Y303536D01*
X896242Y300724D01*
X902518Y300724D01*
X905955Y302148D01*
X909063Y302595D01*
X911472Y301830D01*
X913392Y300187D01*
X914519Y297924D01*
X915395Y294654D01*
X918515Y289250D01*
X922928Y284837D01*
X928332Y281717D01*
X934360Y280102D01*
X940600Y280102D01*
X946628Y281717D01*
X952032Y284837D01*
X956445Y289250D01*
X959565Y294654D01*
X961180Y300682D01*
X961180Y306922D01*
X959565Y312950D01*
X956445Y318354D01*
X952032Y322767D01*
X946628Y325887D01*
X940600Y327502D01*
X934360Y327502D01*
X928332Y325887D01*
X922204Y322349D01*
X922199Y322358D01*
X921364Y321781D01*
X918900Y321219D01*
X916412Y321662D01*
X914294Y323041D01*
X912881Y325137D01*
X912756Y325440D01*
X908318Y329878D01*
X902518Y332280D01*
X896242Y332280D01*
X889600Y329529D01*
X889250Y329289D01*
X886781Y328747D01*
X884297Y329210D01*
X883907Y329468D01*
X877118Y332280D01*
X870842Y332280D01*
X864200Y329529D01*
X863850Y329289D01*
X861381Y328747D01*
X858897Y329210D01*
X858507Y329468D01*
X851718Y332280D01*
X844478Y332280D01*
X842189Y332707D01*
X840060Y334069D01*
X838631Y336153D01*
X838128Y338630D01*
X838128Y410711D01*
X836053Y415720D01*
X619720Y632053D01*
X614711Y634128D01*
X569275Y634128D01*
X566892Y634592D01*
X564785Y635988D01*
X541598Y659175D01*
X540344Y660957D01*
X539743Y663412D01*
X540147Y665907D01*
X541492Y668046D01*
X543565Y669492D01*
X546038Y670015D01*
X548518Y669532D01*
X552771Y667770D01*
X558905Y667770D01*
X565178Y670369D01*
X565968Y670910D01*
X568437Y671453D01*
X570921Y670989D01*
X571792Y670412D01*
X578171Y667770D01*
X584305Y667770D01*
X590578Y670369D01*
X591368Y670910D01*
X593837Y671453D01*
X596321Y670989D01*
X597192Y670412D01*
X603571Y667770D01*
X609705Y667770D01*
X615372Y670117D01*
X618972Y673717D01*
X620939Y675054D01*
X623411Y675577D01*
X625892Y675094D01*
X628990Y673811D01*
X628990Y692565D01*
X625892Y691282D01*
X623563Y690800D01*
X621079Y691263D01*
X618972Y692659D01*
X615372Y696259D01*
X609705Y698606D01*
X603571Y698606D01*
X597298Y696008D01*
X596508Y695466D01*
X594039Y694923D01*
X591555Y695387D01*
X590684Y695964D01*
X584305Y698606D01*
X578171Y698606D01*
X571898Y696008D01*
X571108Y695466D01*
X568639Y694923D01*
X566155Y695387D01*
X565284Y695964D01*
X558905Y698606D01*
X552771Y698606D01*
X546498Y696008D01*
X545708Y695466D01*
X543239Y694923D01*
X540755Y695387D01*
X539884Y695964D01*
X533505Y698606D01*
X527371Y698606D01*
X521098Y696008D01*
X520308Y695466D01*
X517839Y694923D01*
X515355Y695387D01*
X514484Y695964D01*
X508105Y698606D01*
X501971Y698606D01*
X496304Y696259D01*
X494415Y694369D01*
X492448Y693032D01*
X489975Y692509D01*
X487494Y692993D01*
X487433Y693018D01*
X482686Y693018D01*
X482686Y673358D01*
X487433Y673358D01*
X487494Y673383D01*
X489823Y673866D01*
X492308Y673403D01*
X494415Y672007D01*
X494588Y671834D01*
X495964Y669774D01*
X498447Y663780D01*
X538054Y624173D01*
X539307Y622391D01*
X539909Y619936D01*
X539505Y617441D01*
X538160Y615302D01*
X536087Y613856D01*
X533614Y613333D01*
X531134Y613817D01*
X528455Y614926D01*
X522221Y614926D01*
X515692Y612222D01*
X515208Y611890D01*
X512739Y611347D01*
X510255Y611811D01*
X509718Y612166D01*
X503055Y614926D01*
X496821Y614926D01*
X491063Y612541D01*
X487546Y609024D01*
X485579Y607687D01*
X483106Y607164D01*
X480625Y607647D01*
X477586Y608906D01*
X477586Y596210D01*
X471490Y596210D01*
X471490Y608906D01*
X468451Y607647D01*
X466122Y607165D01*
X463637Y607628D01*
X461530Y609024D01*
X458013Y612541D01*
X452255Y614926D01*
X446021Y614926D01*
X440263Y612541D01*
X435855Y608134D01*
X433470Y602375D01*
X433470Y596142D01*
X435855Y590383D01*
X440263Y585976D01*
X446288Y583480D01*
X447863Y583199D01*
X450014Y581871D01*
X451476Y579810D01*
X452018Y577342D01*
X451555Y574857D01*
X450159Y572750D01*
X449029Y571621D01*
X446632Y565833D01*
X446632Y559568D01*
X449029Y553780D01*
X452520Y550289D01*
X453857Y548322D01*
X454380Y545849D01*
X453897Y543369D01*
X452645Y540348D01*
X487703Y540348D01*
X487602Y540820D01*
X488026Y543311D01*
X489387Y545440D01*
X491472Y546869D01*
X493949Y547372D01*
X496225Y547372D01*
X498608Y546908D01*
X500715Y545512D01*
X681512Y364715D01*
X682869Y362702D01*
X683372Y360225D01*
X683372Y337868D01*
X682963Y335626D01*
X681618Y333486D01*
X679545Y332041D01*
X677073Y331518D01*
X674592Y332001D01*
X673918Y332280D01*
X667642Y332280D01*
X661000Y329529D01*
X660650Y329289D01*
X658181Y328747D01*
X655697Y329210D01*
X655307Y329468D01*
X648518Y332280D01*
X642242Y332280D01*
X638174Y330595D01*
X635795Y330112D01*
X633314Y330595D01*
X629247Y332280D01*
X610713Y332280D01*
X607726Y331043D01*
X605439Y328756D01*
X604202Y325769D01*
X604202Y311603D01*
X603811Y309409D01*
X602483Y307259D01*
X600422Y305796D01*
X597953Y305254D01*
X595469Y305717D01*
X593362Y307113D01*
X576338Y324137D01*
X574981Y326151D01*
X574478Y328627D01*
X574478Y362880D01*
X572274Y368201D01*
X540901Y399574D01*
X535580Y401778D01*
X499645Y401778D01*
X497403Y402187D01*
X495263Y403532D01*
X493818Y405605D01*
X493295Y408078D01*
X493368Y408452D01*
X493368Y415833D01*
X490630Y422444D01*
X490364Y422830D01*
X489822Y425299D01*
X490285Y427783D01*
X490570Y428213D01*
X493368Y434968D01*
X493368Y441233D01*
X490971Y447021D01*
X486541Y451451D01*
X480753Y453848D01*
X459248Y453848D01*
X453460Y451451D01*
X449029Y447021D01*
X446632Y441233D01*
X446632Y434968D01*
X449370Y428356D01*
X449636Y427970D01*
X450178Y425501D01*
X449715Y423017D01*
X449430Y422587D01*
X446632Y415833D01*
X446632Y409568D01*
X449370Y402956D01*
X449636Y402570D01*
X450178Y400101D01*
X449715Y397617D01*
X449430Y397187D01*
X446632Y390433D01*
X446632Y384168D01*
X449370Y377556D01*
X449636Y377170D01*
X450178Y374701D01*
X449715Y372217D01*
X449430Y371787D01*
X446632Y365033D01*
X446632Y358768D01*
X449029Y352980D01*
X453460Y348549D01*
X459248Y346152D01*
X480753Y346152D01*
X482652Y346939D01*
X485082Y347422D01*
X489473Y347422D01*
X491856Y346958D01*
X493963Y345562D01*
X503662Y335863D01*
X505019Y333849D01*
X505522Y331373D01*
X505522Y329912D01*
X504770Y326914D01*
X503157Y324968D01*
X500913Y323805D01*
X498393Y323610D01*
X495997Y324413D01*
X490203Y327758D01*
X483665Y329510D01*
X476895Y329510D01*
X470357Y327758D01*
X464495Y324374D01*
X459709Y319587D01*
X456324Y313725D01*
X454572Y307187D01*
X454572Y300417D01*
X456324Y293879D01*
X459709Y288017D01*
X464495Y283231D01*
X470357Y279846D01*
X476895Y278094D01*
X483665Y278094D01*
X490203Y279846D01*
X495997Y283191D01*
X498970Y284039D01*
X501461Y283615D01*
X503590Y282253D01*
X505019Y280169D01*
X505522Y277692D01*
X505522Y277120D01*
X507726Y271799D01*
X551799Y227726D01*
X557120Y225522D01*
G37*
G36*
X469808Y686236D02*
X476590Y686236D01*
X476590Y693018D01*
X471843Y693018D01*
X470909Y692631D01*
X470195Y691917D01*
X469808Y690983D01*
X469808Y686236D01*
G37*
G36*
X635086Y686236D02*
X641415Y686236D01*
X640372Y688756D01*
X637606Y691522D01*
X635086Y692565D01*
X635086Y686236D01*
G37*
G36*
X635086Y680140D02*
X635086Y673811D01*
X637606Y674855D01*
X640372Y677620D01*
X641415Y680140D01*
X635086Y680140D01*
G37*
G36*
X471843Y673358D02*
X476590Y673358D01*
X476590Y680140D01*
X469808Y680140D01*
X469808Y675393D01*
X470195Y674459D01*
X470909Y673745D01*
X471843Y673358D01*
G37*
G36*
X883448Y633748D02*
X904640Y633748D01*
X904640Y652905D01*
X904253Y653839D01*
X903539Y654553D01*
X902605Y654940D01*
X883448Y654940D01*
X883448Y633748D01*
G37*
G36*
X460359Y527140D02*
X466952Y527140D01*
X466952Y534252D01*
X452645Y534252D01*
X453767Y531545D01*
X456625Y528687D01*
X460359Y527140D01*
G37*
G36*
X473048Y527140D02*
X479641Y527140D01*
X483375Y528687D01*
X486233Y531545D01*
X487355Y534252D01*
X473048Y534252D01*
X473048Y527140D01*
G37*
G36*
X909593Y384182D02*
X926407Y384182D01*
X929394Y385419D01*
X931681Y387706D01*
X932918Y390693D01*
X932918Y391278D01*
X933292Y393425D01*
X934603Y395586D01*
X936652Y397064D01*
X939116Y397626D01*
X941604Y397183D01*
X943722Y395804D01*
X945005Y393900D01*
X947715Y391190D01*
X949952Y390264D01*
X949952Y407936D01*
X947715Y407010D01*
X945026Y404321D01*
X943968Y402652D01*
X941930Y401157D01*
X939470Y400575D01*
X936979Y400999D01*
X934850Y402361D01*
X933421Y404445D01*
X932918Y406922D01*
X932918Y407507D01*
X931681Y410494D01*
X929394Y412781D01*
X926407Y414018D01*
X909593Y414018D01*
X906606Y412781D01*
X904319Y410494D01*
X903082Y407507D01*
X903082Y390693D01*
X904319Y387706D01*
X906606Y385419D01*
X909593Y384182D01*
G37*
G36*
X956048Y402148D02*
X961836Y402148D01*
X960910Y404385D01*
X958285Y407010D01*
X956048Y407936D01*
X956048Y402148D01*
G37*
G36*
X956048Y396052D02*
X956048Y390264D01*
X958285Y391190D01*
X960910Y393815D01*
X961836Y396052D01*
X956048Y396052D01*
G37*
G36*
X616842Y97524D02*
X623118Y97524D01*
X629760Y100275D01*
X630110Y100515D01*
X632579Y101057D01*
X635063Y100594D01*
X635453Y100336D01*
X642242Y97524D01*
X648518Y97524D01*
X655160Y100275D01*
X655510Y100515D01*
X657979Y101057D01*
X660463Y100594D01*
X660853Y100336D01*
X667642Y97524D01*
X673918Y97524D01*
X680560Y100275D01*
X680910Y100515D01*
X683379Y101057D01*
X685863Y100594D01*
X686253Y100336D01*
X693042Y97524D01*
X699318Y97524D01*
X705960Y100275D01*
X706310Y100515D01*
X708779Y101057D01*
X711263Y100594D01*
X711653Y100336D01*
X718442Y97524D01*
X724718Y97524D01*
X731360Y100275D01*
X731710Y100515D01*
X734179Y101057D01*
X736663Y100594D01*
X737053Y100336D01*
X743842Y97524D01*
X750118Y97524D01*
X756760Y100275D01*
X757110Y100515D01*
X759579Y101057D01*
X762063Y100594D01*
X762453Y100336D01*
X769242Y97524D01*
X775518Y97524D01*
X782160Y100275D01*
X782510Y100515D01*
X784979Y101057D01*
X787463Y100594D01*
X787853Y100336D01*
X794642Y97524D01*
X800918Y97524D01*
X807560Y100275D01*
X807910Y100515D01*
X810379Y101057D01*
X812863Y100594D01*
X813253Y100336D01*
X820042Y97524D01*
X826318Y97524D01*
X832960Y100275D01*
X833310Y100515D01*
X835779Y101057D01*
X838263Y100594D01*
X838653Y100336D01*
X845442Y97524D01*
X851718Y97524D01*
X858360Y100275D01*
X858710Y100515D01*
X861179Y101057D01*
X863663Y100594D01*
X864053Y100336D01*
X870842Y97524D01*
X877118Y97524D01*
X882918Y99926D01*
X884603Y101612D01*
X886570Y102949D01*
X889043Y103471D01*
X890888Y103112D01*
X896332Y103112D01*
X896332Y123492D01*
X890926Y123492D01*
X889195Y123133D01*
X886710Y123597D01*
X884603Y124992D01*
X882918Y126678D01*
X877118Y129080D01*
X870842Y129080D01*
X864200Y126329D01*
X863850Y126089D01*
X861381Y125547D01*
X858897Y126010D01*
X858507Y126268D01*
X851718Y129080D01*
X845442Y129080D01*
X838800Y126329D01*
X838450Y126089D01*
X835981Y125547D01*
X833497Y126010D01*
X833107Y126268D01*
X826318Y129080D01*
X820042Y129080D01*
X813400Y126329D01*
X813050Y126089D01*
X810581Y125547D01*
X808097Y126010D01*
X807707Y126268D01*
X800918Y129080D01*
X794642Y129080D01*
X788000Y126329D01*
X787650Y126089D01*
X785181Y125547D01*
X782697Y126010D01*
X782307Y126268D01*
X775518Y129080D01*
X769242Y129080D01*
X762600Y126329D01*
X762250Y126089D01*
X759781Y125547D01*
X757297Y126010D01*
X756907Y126268D01*
X750118Y129080D01*
X743842Y129080D01*
X737200Y126329D01*
X736850Y126089D01*
X734381Y125547D01*
X731897Y126010D01*
X731507Y126268D01*
X724718Y129080D01*
X718442Y129080D01*
X711800Y126329D01*
X711450Y126089D01*
X708981Y125547D01*
X706497Y126010D01*
X706107Y126268D01*
X699318Y129080D01*
X693042Y129080D01*
X686400Y126329D01*
X686050Y126089D01*
X683581Y125547D01*
X681097Y126010D01*
X680707Y126268D01*
X673918Y129080D01*
X667642Y129080D01*
X661000Y126329D01*
X660650Y126089D01*
X658181Y125547D01*
X655697Y126010D01*
X655307Y126268D01*
X648518Y129080D01*
X642242Y129080D01*
X635600Y126329D01*
X635250Y126089D01*
X632781Y125547D01*
X630297Y126010D01*
X629907Y126268D01*
X623118Y129080D01*
X616842Y129080D01*
X611043Y126678D01*
X607562Y123197D01*
X605595Y121860D01*
X603122Y121338D01*
X600642Y121821D01*
X597628Y123069D01*
X597628Y103535D01*
X600642Y104783D01*
X602970Y105266D01*
X605455Y104802D01*
X607562Y103407D01*
X611043Y99926D01*
X616842Y97524D01*
G37*
%LPD*%
D10*
X918000Y399100D03*
D11*
X953000Y399100D03*
D12*
X449138Y599258D03*
X474538Y599258D03*
X499938Y599258D03*
X525338Y599258D03*
X550738Y599258D03*
X576138Y599258D03*
X601538Y599258D03*
D13*
X880400Y630700D03*
D14*
X850900Y581700D03*
D15*
X912900Y581700D03*
D16*
X450000Y50000D03*
X450000Y950000D03*
X950000Y50000D03*
X950000Y950000D03*
D17*
X479638Y683188D03*
D18*
X505038Y683188D03*
X530438Y683188D03*
X555838Y683188D03*
X581238Y683188D03*
X606638Y683188D03*
X632038Y683188D03*
X632038Y759388D03*
X606638Y759388D03*
X581238Y759388D03*
X555838Y759388D03*
X530438Y759388D03*
X505038Y759388D03*
X479638Y759388D03*
D19*
X600000Y850000D03*
X600000Y875400D03*
D20*
X899380Y113302D03*
X619980Y316502D03*
D21*
X480280Y303802D03*
X480280Y126002D03*
D22*
X645380Y316502D03*
X670780Y316502D03*
X696180Y316502D03*
X721580Y316502D03*
X746980Y316502D03*
X772380Y316502D03*
X797780Y316502D03*
X823180Y316502D03*
X848580Y316502D03*
X873980Y316502D03*
X899380Y316502D03*
X873980Y113302D03*
X848580Y113302D03*
X823180Y113302D03*
X797780Y113302D03*
X772380Y113302D03*
X746980Y113302D03*
X721580Y113302D03*
X696180Y113302D03*
X670780Y113302D03*
X645380Y113302D03*
X619980Y113302D03*
X594580Y113302D03*
X569180Y113302D03*
X543780Y113302D03*
X518380Y113302D03*
D23*
X477620Y361900D02*
X462380Y361900D01*
X462380Y387300D02*
X477620Y387300D01*
X477620Y412700D02*
X462380Y412700D01*
X462380Y438100D02*
X477620Y438100D01*
X477620Y537300D02*
X462380Y537300D01*
X462380Y562700D02*
X477620Y562700D01*
D19*
X526967Y813033D03*
X526967Y838433D03*
X526967Y863833D03*
X526967Y889233D03*
X526967Y914633D03*
D24*
X510000Y680000D02*
X510000Y671500D01*
X561000Y620500D01*
X612000Y620500D01*
X824500Y408000D01*
X824500Y323000D01*
X510000Y680000D02*
X505038Y683188D01*
X824500Y323000D02*
X823180Y316502D01*
X841500Y717500D02*
X681278Y877722D01*
X841500Y717500D02*
X841500Y595000D01*
X850000Y586500D01*
X681278Y877722D02*
X600000Y875400D01*
X850000Y586500D02*
X850900Y581700D01*
X504500Y561000D02*
X476000Y561000D01*
X504500Y561000D02*
X697000Y368500D01*
X697000Y323000D01*
X476000Y561000D02*
X470000Y562700D01*
X697000Y323000D02*
X696180Y316502D01*
D25*
X532700Y387300D02*
X470000Y387300D01*
X532700Y387300D02*
X560000Y360000D01*
X560000Y320000D01*
X600000Y280000D01*
X740000Y280000D01*
X746980Y286980D01*
X746980Y316502D01*
X772380Y316502D02*
X772380Y252380D01*
X760000Y240000D01*
X560000Y240000D01*
X520000Y280000D01*
X520000Y340000D01*
X498100Y361900D01*
X470000Y361900D01*
M02*
