G04 EAGLE Gerber RS-274X export*
G75*
%MOMM*%
%FSLAX34Y34*%
%LPD*%
%INSilkscreen Bottom*%
%IPPOS*%
%AMOC8*
5,1,8,0,0,1.08239X$1,22.5*%
G01*
G04 Define Apertures*
%ADD10C,0.100000*%
%ADD11C,0.600000*%
G36*
X612198Y497433D02*
X611749Y497446D01*
X611314Y497485D01*
X610893Y497550D01*
X610486Y497641D01*
X610093Y497758D01*
X609714Y497901D01*
X609348Y498070D01*
X608996Y498265D01*
X608661Y498485D01*
X608345Y498729D01*
X608049Y498996D01*
X607771Y499288D01*
X607513Y499603D01*
X607274Y499942D01*
X607055Y500305D01*
X606855Y500691D01*
X608221Y501374D01*
X608389Y501064D01*
X608568Y500773D01*
X608756Y500502D01*
X608954Y500252D01*
X609163Y500021D01*
X609381Y499811D01*
X609610Y499620D01*
X609848Y499450D01*
X610097Y499299D01*
X610355Y499169D01*
X610624Y499059D01*
X610903Y498969D01*
X611192Y498898D01*
X611491Y498848D01*
X611800Y498818D01*
X612119Y498808D01*
X612611Y498830D01*
X613078Y498894D01*
X613519Y499002D01*
X613933Y499153D01*
X614321Y499347D01*
X614683Y499584D01*
X615019Y499864D01*
X615329Y500188D01*
X615607Y500546D01*
X615848Y500933D01*
X616052Y501347D01*
X616219Y501789D01*
X616349Y502259D01*
X616441Y502757D01*
X616497Y503282D01*
X616516Y503836D01*
X616498Y504394D01*
X616444Y504922D01*
X616355Y505419D01*
X616231Y505886D01*
X616071Y506323D01*
X615875Y506728D01*
X615644Y507104D01*
X615377Y507449D01*
X615078Y507757D01*
X614751Y508025D01*
X614395Y508252D01*
X614011Y508437D01*
X613598Y508581D01*
X613157Y508684D01*
X612687Y508746D01*
X612189Y508767D01*
X611868Y508758D01*
X611558Y508731D01*
X611260Y508687D01*
X610972Y508624D01*
X610696Y508544D01*
X610431Y508446D01*
X610177Y508331D01*
X609933Y508197D01*
X609704Y508047D01*
X609491Y507881D01*
X609294Y507699D01*
X609113Y507501D01*
X608949Y507287D01*
X608801Y507058D01*
X608669Y506812D01*
X608554Y506551D01*
X606969Y507076D01*
X607135Y507443D01*
X607323Y507787D01*
X607534Y508108D01*
X607766Y508405D01*
X608020Y508680D01*
X608296Y508930D01*
X608593Y509158D01*
X608913Y509362D01*
X609254Y509543D01*
X609615Y509699D01*
X609996Y509832D01*
X610398Y509940D01*
X610819Y510025D01*
X611261Y510085D01*
X611724Y510121D01*
X612206Y510133D01*
X612554Y510126D01*
X612892Y510107D01*
X613221Y510074D01*
X613540Y510028D01*
X613849Y509970D01*
X614149Y509898D01*
X614439Y509813D01*
X614720Y509715D01*
X614991Y509604D01*
X615253Y509480D01*
X615505Y509342D01*
X615747Y509192D01*
X616203Y508852D01*
X616621Y508460D01*
X616994Y508022D01*
X617318Y507544D01*
X617592Y507026D01*
X617710Y506752D01*
X617816Y506468D01*
X617910Y506174D01*
X617991Y505870D01*
X618059Y505556D01*
X618115Y505232D01*
X618159Y504898D01*
X618190Y504554D01*
X618208Y504200D01*
X618215Y503836D01*
X618204Y503351D01*
X618170Y502883D01*
X618114Y502432D01*
X618036Y501997D01*
X617936Y501579D01*
X617813Y501178D01*
X617668Y500793D01*
X617501Y500424D01*
X617312Y500074D01*
X617103Y499745D01*
X616874Y499437D01*
X616625Y499150D01*
X616355Y498883D01*
X616066Y498637D01*
X615755Y498412D01*
X615425Y498208D01*
X615077Y498027D01*
X614713Y497869D01*
X614333Y497736D01*
X613937Y497627D01*
X613526Y497542D01*
X613099Y497482D01*
X612656Y497445D01*
X612198Y497433D01*
G37*
G36*
X604822Y497608D02*
X597088Y497608D01*
X597088Y498948D01*
X600092Y498948D01*
X600092Y509949D01*
X601546Y509949D01*
X604463Y507943D01*
X604463Y506454D01*
X601677Y508443D01*
X601677Y498948D01*
X604822Y498948D01*
X604822Y497608D01*
G37*
G36*
X622439Y497608D02*
X620766Y497608D01*
X620766Y509949D01*
X622439Y509949D01*
X622439Y497608D01*
G37*
D10*
X785138Y613258D02*
X435138Y613258D01*
X435138Y383258D01*
X785138Y383258D01*
X785138Y613258D01*
D11*
X449138Y623658D02*
X449182Y623660D01*
X449225Y623666D01*
X449267Y623675D01*
X449309Y623688D01*
X449349Y623705D01*
X449388Y623725D01*
X449425Y623748D01*
X449459Y623775D01*
X449492Y623804D01*
X449521Y623837D01*
X449548Y623871D01*
X449571Y623908D01*
X449591Y623947D01*
X449608Y623987D01*
X449621Y624029D01*
X449630Y624071D01*
X449636Y624114D01*
X449638Y624158D01*
X449636Y624202D01*
X449630Y624245D01*
X449621Y624287D01*
X449608Y624329D01*
X449591Y624369D01*
X449571Y624408D01*
X449548Y624445D01*
X449521Y624479D01*
X449492Y624512D01*
X449459Y624541D01*
X449425Y624568D01*
X449388Y624591D01*
X449349Y624611D01*
X449309Y624628D01*
X449267Y624641D01*
X449225Y624650D01*
X449182Y624656D01*
X449138Y624658D01*
X449094Y624656D01*
X449051Y624650D01*
X449009Y624641D01*
X448967Y624628D01*
X448927Y624611D01*
X448888Y624591D01*
X448851Y624568D01*
X448817Y624541D01*
X448784Y624512D01*
X448755Y624479D01*
X448728Y624445D01*
X448705Y624408D01*
X448685Y624369D01*
X448668Y624329D01*
X448655Y624287D01*
X448646Y624245D01*
X448640Y624202D01*
X448638Y624158D01*
X448640Y624114D01*
X448646Y624071D01*
X448655Y624029D01*
X448668Y623987D01*
X448685Y623947D01*
X448705Y623908D01*
X448728Y623871D01*
X448755Y623837D01*
X448784Y623804D01*
X448817Y623775D01*
X448851Y623748D01*
X448888Y623725D01*
X448927Y623705D01*
X448967Y623688D01*
X449009Y623675D01*
X449051Y623666D01*
X449094Y623660D01*
X449138Y623658D01*
M02*
