G04 EAGLE Gerber RS-274X export*
G75*
%MOMM*%
%FSLAX34Y34*%
%LPD*%
%INSoldermask Bottom*%
%IPPOS*%
%AMOC8*
5,1,8,0,0,1.08239X$1,22.5*%
G01*
G04 Define Apertures*
%ADD10R,1.561200X1.561200*%
%ADD11C,1.561200*%
%ADD12C,1.711200*%
%ADD13R,4.543200X4.543200*%
%ADD14C,5.203200*%
%ADD15C,4.743200*%
%ADD16C,2.403200*%
%ADD17C,2.903200*%
%ADD18C,7.753200*%
%ADD19R,1.661200X1.661200*%
%ADD20C,1.661200*%
%ADD21C,2.082800*%
%ADD22R,1.733200X1.733200*%
%ADD23C,3.719200*%
%ADD24C,2.743200*%
%ADD25C,1.733200*%
%ADD26C,1.727200*%
D10*
X918000Y399100D03*
D11*
X953000Y399100D03*
D12*
X449138Y599258D03*
X474538Y599258D03*
X499938Y599258D03*
X525338Y599258D03*
X550738Y599258D03*
X576138Y599258D03*
X601538Y599258D03*
D13*
X880400Y630700D03*
D14*
X850900Y581700D03*
D15*
X912900Y581700D03*
D16*
X955900Y581700D03*
D17*
X450000Y50000D03*
D18*
X450000Y50000D03*
D17*
X450000Y950000D03*
D18*
X450000Y950000D03*
D17*
X950000Y50000D03*
D18*
X950000Y50000D03*
D17*
X950000Y950000D03*
D18*
X950000Y950000D03*
D19*
X479638Y683188D03*
D20*
X505038Y683188D03*
X530438Y683188D03*
X555838Y683188D03*
X581238Y683188D03*
X606638Y683188D03*
X632038Y683188D03*
X632038Y759388D03*
X606638Y759388D03*
X581238Y759388D03*
X555838Y759388D03*
X530438Y759388D03*
X505038Y759388D03*
X479638Y759388D03*
D21*
X600000Y850000D03*
X600000Y875400D03*
D22*
X899380Y113302D03*
X619980Y316502D03*
D23*
X480280Y303802D03*
X480280Y126002D03*
D24*
X937480Y126002D03*
X937480Y303802D03*
D25*
X645380Y316502D03*
X670780Y316502D03*
X696180Y316502D03*
X721580Y316502D03*
X746980Y316502D03*
X772380Y316502D03*
X797780Y316502D03*
X823180Y316502D03*
X848580Y316502D03*
X873980Y316502D03*
X899380Y316502D03*
X873980Y113302D03*
X848580Y113302D03*
X823180Y113302D03*
X797780Y113302D03*
X772380Y113302D03*
X746980Y113302D03*
X721580Y113302D03*
X696180Y113302D03*
X670780Y113302D03*
X645380Y113302D03*
X619980Y113302D03*
X594580Y113302D03*
X569180Y113302D03*
X543780Y113302D03*
X518380Y113302D03*
D26*
X477620Y361900D02*
X462380Y361900D01*
X462380Y387300D02*
X477620Y387300D01*
X477620Y412700D02*
X462380Y412700D01*
X462380Y438100D02*
X477620Y438100D01*
X477620Y537300D02*
X462380Y537300D01*
X462380Y562700D02*
X477620Y562700D01*
D21*
X526967Y813033D03*
X526967Y838433D03*
X526967Y863833D03*
X526967Y889233D03*
X526967Y914633D03*
M02*
